<svg width="99" height="100" viewBox="0 0 99 100" fill="none" xmlns="http://www.w3.org/2000/svg">
<path fill-rule="evenodd" clip-rule="evenodd" d="M18.7091 3.45986C10.282 3.46619 3.45196 10.3144 3.44565 18.7651V80.5158C3.45541 88.9648 10.2832 95.8118 18.7091 95.8205H80.2912C88.7171 95.8118 95.5455 88.9648 95.5547 80.5158V18.7593C95.5484 10.3092 88.7183 3.46044 80.2912 3.4541L18.7091 3.45986ZM80.2911 99.2762H18.7089C8.38055 99.2676 0.00976218 90.8739 0 80.5166V18.7601C0.00976218 8.40291 8.38055 0.0097889 18.7089 0H80.2911C90.62 0.0097889 98.9908 8.40291 99 18.7601V80.5166C98.9908 90.8739 90.62 99.2676 80.2911 99.2762Z" fill="white"/>
<path fill-rule="evenodd" clip-rule="evenodd" d="M49.8143 12.4219C47.4042 12.4219 45.45 14.3814 45.45 16.7987C45.45 19.2154 47.4042 21.1743 49.8143 21.1743C52.2244 21.1743 54.1786 19.2154 54.1786 16.7987C54.1757 14.3825 52.2233 12.4253 49.8143 12.4219ZM49.8154 24.6232C45.5022 24.6232 42.0056 21.1176 42.0056 16.7921C42.0056 12.4671 45.5022 8.96094 49.8154 8.96094C54.1285 8.96094 57.6251 12.4671 57.6251 16.7921C57.6222 21.1159 54.1274 24.6203 49.8154 24.6232Z" fill="white"/>
<path fill-rule="evenodd" clip-rule="evenodd" d="M49.814 60.4967C50.8557 60.4933 51.8245 61.0345 52.3694 61.9248L67.0012 85.66C67.7587 86.8312 69.32 87.1646 70.488 86.4051C71.6297 85.6623 71.9776 84.1444 71.2736 82.9767L65.1924 73.0841C59.9093 64.4929 59.1972 56.5927 59.1972 50.0001C59.1972 42.0826 64.308 36.9631 70.7798 30.4736L71.2736 29.9841L76.7519 24.416C77.3779 23.7653 78.3196 22.4755 77.4755 21.2778C77.1166 20.7503 76.5544 20.395 75.925 20.2989C75.4851 20.2407 75.0418 20.3697 74.7019 20.6559L67.8109 27.5657C63.082 32.3104 56.6975 35.022 50.0093 35.1262H49.6992C43.0098 35.0202 36.6248 32.3064 31.8976 27.5599L25.0066 20.6501C24.6667 20.3645 24.2234 20.2344 23.7835 20.2931C23.1558 20.3916 22.5965 20.7457 22.2382 21.272C21.3889 22.464 22.3358 23.7595 22.9738 24.4217L28.9287 30.4678C35.3999 36.9515 40.517 42.0763 40.517 49.9938C40.517 56.5869 39.8049 64.4871 34.5219 73.0784L28.4464 82.9651C27.7056 84.1479 28.0616 85.7089 29.2417 86.4517C30.4212 87.1939 31.978 86.8369 32.7182 85.6542L47.3448 61.9017C47.8783 61.0449 48.8068 60.5163 49.814 60.4967ZM69.1498 90.3166C68.6938 90.316 68.239 90.2636 67.7945 90.1617C66.2515 89.8076 64.9136 88.8494 64.0792 87.5008L49.8149 64.353L35.5564 87.4951C33.8124 90.2987 30.1321 91.1527 27.3361 89.4039C24.5401 87.6552 23.6879 83.9647 25.4324 81.1611L31.5079 71.2628C36.3374 63.4029 36.9863 56.1015 36.9863 49.9921C36.9863 43.5083 32.5531 39.0515 26.4086 32.9133L25.9148 32.4181L20.4193 26.8327C18.1223 24.4488 17.7203 21.5524 19.3397 19.2664C20.2567 17.9501 21.6809 17.0777 23.2675 16.8595C24.6859 16.6787 26.1146 17.1123 27.1954 18.0514L27.293 18.1436L34.2643 25.111C42.6684 33.7148 56.4365 33.8582 65.0175 25.4311C65.1249 25.3257 65.2317 25.2186 65.3368 25.111L72.4172 18.0457C73.498 17.1065 74.9261 16.6729 76.3451 16.8537C77.9317 17.072 79.3553 17.9443 80.2729 19.2607C81.898 21.5639 81.4903 24.443 79.2106 26.8154L73.2097 32.9075C67.071 39.0579 62.6321 43.5026 62.6321 49.9863C62.6321 56.0957 63.281 63.4029 68.1161 71.257L74.1916 81.138C75.9328 83.9434 75.0766 87.6327 72.2788 89.3786C71.3365 89.9671 70.2489 90.2803 69.1383 90.282" fill="white"/>
</svg>
