<?xml version="1.0" encoding="utf-8"?>
<!-- Generator: Adobe Illustrator 25.0.0, SVG Export Plug-In . SVG Version: 6.00 Build 0)  -->
<svg version="1.1" id="Layer_1" xmlns="http://www.w3.org/2000/svg" xmlns:xlink="http://www.w3.org/1999/xlink" x="0px" y="0px"
	 viewBox="0 0 227 49" style="enable-background:new 0 0 227 49;" xml:space="preserve">
<style type="text/css">
	.st0{fill-rule:evenodd;clip-rule:evenodd;}
	.st1{fill-rule:evenodd;clip-rule:evenodd;fill:#FFFFFF;filter:url(#Adobe_OpacityMaskFilter);}
	.st2{mask:url(#mask0_1_);}
	.st3{fill-rule:evenodd;clip-rule:evenodd;fill:#FFFFFF;filter:url(#Adobe_OpacityMaskFilter_1_);}
	.st4{mask:url(#mask1_1_);}
</style>
<path class="st0" d="M55.89,45.32h1.37v-9.97h-1.37V45.32z"/>
<path class="st0" d="M55.89,3.6h3.14v10.2h13.08V3.6h3.17v22.89h-3.17v-9.84H59.03v9.84h-3.14V3.6z"/>
<path class="st0" d="M97.16,22.09c1.16,1.19,2.77,1.78,4.82,1.78c2.05,0,3.64-0.59,4.78-1.78c1.15-1.19,1.73-2.84,1.73-4.95V3.6
	h3.14v13.54c0,2.99-0.86,5.33-2.57,7.03c-1.71,1.7-4.07,2.55-7.08,2.55c-3.03,0-5.41-0.85-7.13-2.55c-1.72-1.7-2.58-4.04-2.58-7.03
	V3.6h3.14v13.54C95.42,19.25,96,20.9,97.16,22.09"/>
<path class="st0" d="M128.62,3.6h3.73l8.37,16.08l8.3-16.08h3.76v22.89h-2.94l-0.03-18.28l-8.15,15.86h-1.93l-8.21-15.86v18.28
	h-2.91V3.6z"/>
<path class="st0" d="M186.63,17.33v-3.99c0-4.77-2.55-7.1-6.6-7.1c-4.05,0-6.61,2.32-6.61,7.1v3.99H186.63z M189.92,13.64v12.85
	h-3.27v-6.31h-13.23v6.31h-3.2V13.64c0-6.77,3.92-10.3,9.81-10.3c5.89,0,9.87,3.53,9.87,10.3H189.92z"/>
<defs>
	<filter id="Adobe_OpacityMaskFilter" filterUnits="userSpaceOnUse" x="207.52" y="3.6" width="19.39" height="22.89">
		<feColorMatrix  type="matrix" values="1 0 0 0 0  0 1 0 0 0  0 0 1 0 0  0 0 0 1 0"/>
	</filter>
</defs>
<mask maskUnits="userSpaceOnUse" x="207.52" y="3.6" width="19.39" height="22.89" id="mask0_1_">
	<path class="st1" d="M207.52,3.6h19.39v22.89h-19.39V3.6z"/>
</mask>
<g class="st2">
	<path class="st0" d="M223.81,3.6h3.1v22.89h-3.17L210.66,8.76v17.73h-3.14V3.6h3.17l13.12,17.75V3.6z"/>
</g>
<path class="st0" d="M69.7,35.35h1.35v9.97h-1.38l-5.7-7.72v7.72h-1.37v-9.97h1.38l5.71,7.74V35.35z"/>
<path class="st0" d="M75.13,35.35h7.8v1.26h-3.22v8.72h-1.37V36.6h-3.21V35.35z"/>
<path class="st0" d="M86.99,35.35h6.92v1.24h-5.56v3.08h4.97v1.24h-4.97v3.18h5.73v1.24h-7.09V35.35z"/>
<path class="st0" d="M102.69,40.98c0.7,0.05,1.4-0.15,1.97-0.56c0.47-0.42,0.73-1.03,0.69-1.66c0.04-0.62-0.21-1.22-0.69-1.62
	c-0.57-0.4-1.27-0.6-1.97-0.55h-2.53v4.37L102.69,40.98z M105.22,45.33l-1.98-3.13c-0.23,0-0.41,0.03-0.55,0.03h-2.54v3.11h-1.37
	v-9.97h3.91c1.05-0.07,2.09,0.25,2.93,0.88c0.71,0.63,1.09,1.54,1.03,2.49c0.02,0.72-0.17,1.43-0.56,2.04
	c-0.39,0.57-0.96,0.99-1.62,1.2l2.32,3.38L105.22,45.33z"/>
<path class="st0" d="M111.58,35.35h6.5l-0.01,1.24h-5.11v3.28h4.6v1.24h-4.6v4.22h-1.37V35.35z"/>
<path class="st0" d="M123.43,41.67h4.19l-2.11-4.84L123.43,41.67z M129.21,45.33l-1.06-2.42h-5.26l-1.04,2.42h-1.44l4.43-9.97h1.43
	l4.42,9.97H129.21z"/>
<path class="st0" d="M140.29,36.81c-1.79-0.8-3.9-0.13-4.89,1.57c-1.06,1.83-0.44,4.19,1.4,5.25c0.59,0.34,1.26,0.52,1.94,0.51
	c0.53,0,1.05-0.11,1.54-0.32c0.5-0.21,0.95-0.51,1.34-0.88l0.83,0.91c-0.51,0.5-1.1,0.89-1.75,1.16c-1.5,0.64-3.21,0.55-4.63-0.26
	c-1.59-0.9-2.57-2.59-2.55-4.42c-0.01-0.9,0.23-1.78,0.69-2.56c0.46-0.77,1.11-1.4,1.89-1.83c0.8-0.45,1.71-0.68,2.63-0.67
	c0.69,0,1.38,0.13,2.02,0.39c0.63,0.25,1.21,0.63,1.69,1.11l-0.8,0.97c-0.38-0.39-0.83-0.7-1.33-0.91"/>
<path class="st0" d="M146.85,35.35h6.93v1.24h-5.56v3.08h4.98v1.24h-4.98v3.18h5.73v1.24h-7.1V35.35z"/>
<path class="st0" d="M167.8,43.6c0.56-0.32,1.02-0.78,1.34-1.34c0.66-1.19,0.66-2.64,0-3.83c-0.33-0.56-0.8-1.03-1.37-1.35
	c-0.58-0.33-1.24-0.5-1.92-0.49h-2.67v7.5h2.74c0.66,0.01,1.31-0.16,1.89-0.49 M168.53,36c0.76,0.42,1.39,1.04,1.83,1.79
	c0.9,1.58,0.9,3.52,0,5.1c-0.45,0.75-1.09,1.37-1.86,1.79c-0.81,0.44-1.72,0.66-2.65,0.65h-4.02v-9.97h4.06
	C166.81,35.34,167.71,35.56,168.53,36"/>
<path class="st0" d="M175.49,35.35h6.92v1.24h-5.56v3.08h4.97v1.24h-4.97v3.18h5.73v1.24h-7.1V35.35z"/>
<path class="st0" d="M191.67,36.77c-0.45-0.14-0.91-0.21-1.37-0.22c-0.48-0.02-0.96,0.1-1.37,0.33c-0.33,0.19-0.53,0.54-0.52,0.91
	c-0.01,0.32,0.1,0.63,0.32,0.86c0.22,0.23,0.48,0.41,0.77,0.53c0.31,0.13,0.73,0.28,1.27,0.46c0.56,0.17,1.1,0.37,1.64,0.6
	c0.42,0.19,0.79,0.48,1.07,0.85c0.32,0.43,0.48,0.96,0.46,1.49c0.01,0.53-0.15,1.06-0.46,1.5c-0.33,0.45-0.78,0.79-1.3,0.99
	c-0.61,0.24-1.26,0.36-1.92,0.35c-0.73,0-1.46-0.15-2.14-0.43c-0.66-0.27-1.27-0.65-1.8-1.14l0.61-1.18
	c0.46,0.46,1.01,0.82,1.61,1.07c0.55,0.24,1.14,0.37,1.73,0.38c0.55,0.03,1.1-0.11,1.57-0.39c0.37-0.23,0.59-0.63,0.58-1.06
	c0.01-0.32-0.1-0.63-0.32-0.87c-0.22-0.24-0.49-0.42-0.79-0.54c-0.42-0.17-0.85-0.33-1.29-0.46c-0.55-0.16-1.1-0.36-1.62-0.59
	c-0.42-0.19-0.78-0.48-1.06-0.84c-0.31-0.42-0.48-0.94-0.46-1.47c0-0.51,0.16-1,0.46-1.41c0.32-0.42,0.75-0.75,1.24-0.94
	c0.59-0.23,1.22-0.34,1.85-0.33c0.6,0,1.19,0.09,1.76,0.27c0.54,0.16,1.06,0.4,1.53,0.7l-0.57,1.23c-0.45-0.29-0.93-0.51-1.44-0.66"
	/>
<defs>
	<filter id="Adobe_OpacityMaskFilter_1_" filterUnits="userSpaceOnUse" x="0" y="0.28" width="226.91" height="48.27">
		<feColorMatrix  type="matrix" values="1 0 0 0 0  0 1 0 0 0  0 0 1 0 0  0 0 0 1 0"/>
	</filter>
</defs>
<mask maskUnits="userSpaceOnUse" x="0" y="0.28" width="226.91" height="48.27" id="mask1_1_">
	<path class="st3" d="M0,48.55h226.91V0.28H0V48.55z"/>
</mask>
<g class="st4">
	<path class="st0" d="M198.56,45.32h1.37v-9.97h-1.37V45.32z"/>
	<path class="st0" d="M212.17,40.45h1.21v3.66c-1.09,0.83-2.41,1.29-3.78,1.31c-0.92,0.01-1.83-0.22-2.63-0.68
		c-1.6-0.89-2.59-2.59-2.58-4.42c-0.01-0.9,0.24-1.79,0.7-2.56c0.46-0.77,1.12-1.4,1.91-1.83c0.82-0.45,1.74-0.68,2.68-0.67
		c0.69,0,1.38,0.13,2.03,0.37c0.63,0.23,1.21,0.57,1.71,1.01l-0.78,1c-0.4-0.37-0.87-0.66-1.37-0.86c-0.51-0.2-1.04-0.31-1.59-0.31
		c-0.69-0.01-1.37,0.17-1.97,0.51c-0.59,0.33-1.08,0.81-1.42,1.39c-0.7,1.2-0.7,2.68,0,3.88c0.34,0.59,0.83,1.09,1.42,1.43
		c0.6,0.35,1.28,0.53,1.97,0.52c0.43,0,0.86-0.07,1.28-0.21c0.43-0.13,0.83-0.33,1.2-0.58L212.17,40.45z"/>
	<path class="st0" d="M225.56,35.35h1.35v9.97h-1.38l-5.7-7.72v7.72h-1.37v-9.97h1.38l5.72,7.74V35.35z"/>
	<path class="st0" d="M9.12,1.96c-4.11,0-7.44,3.33-7.44,7.44v30.03c0,4.11,3.33,7.44,7.44,7.44h30.03c4.11,0,7.44-3.33,7.44-7.44
		V9.4c0-4.11-3.33-7.44-7.44-7.44L9.12,1.96z M39.15,48.55H9.12C4.09,48.55,0,44.47,0,39.43V9.4c0-5.04,4.09-9.12,9.12-9.12h30.03
		c5.04,0,9.12,4.09,9.12,9.12v30.03C48.27,44.47,44.19,48.55,39.15,48.55L39.15,48.55z"/>
	<path class="st0" d="M24.29,6.32c-1.18,0-2.13,0.95-2.13,2.13c0,1.18,0.95,2.13,2.13,2.13c1.18,0,2.13-0.95,2.13-2.13
		C26.42,7.27,25.46,6.32,24.29,6.32 M24.29,12.25c-2.1,0-3.81-1.7-3.81-3.81c0-2.1,1.7-3.81,3.81-3.81c2.1,0,3.81,1.7,3.81,3.81
		C28.1,10.55,26.39,12.25,24.29,12.25"/>
	<path class="st0" d="M24.29,29.7c0.51,0,0.98,0.26,1.25,0.69l7.13,11.54c0.37,0.57,1.13,0.73,1.7,0.36
		c0.56-0.36,0.73-1.1,0.38-1.67l-2.97-4.81c-2.58-4.18-2.92-8.02-2.92-11.23c0-3.85,2.49-6.34,5.65-9.49l0.24-0.24l2.67-2.71
		c0.31-0.32,0.76-0.94,0.35-1.53c-0.17-0.26-0.45-0.43-0.76-0.48c-0.21-0.03-0.43,0.03-0.6,0.17l-3.36,3.36
		c-2.31,2.31-5.42,3.63-8.68,3.68h-0.15c-3.26-0.05-6.38-1.37-8.68-3.68l-3.36-3.36c-0.17-0.14-0.38-0.2-0.6-0.17
		c-0.31,0.05-0.58,0.22-0.75,0.48c-0.41,0.58,0.05,1.21,0.36,1.53l2.9,2.94c3.16,3.15,5.65,5.64,5.65,9.49
		c0,3.21-0.35,7.05-2.92,11.23l-2.96,4.81c-0.36,0.58-0.19,1.33,0.39,1.7c0.58,0.36,1.33,0.19,1.7-0.39l7.13-11.55
		C23.35,29.96,23.8,29.71,24.29,29.7 M33.72,44.2c-0.22,0-0.44-0.03-0.66-0.08c-0.75-0.17-1.4-0.64-1.81-1.29l-6.96-11.26
		l-6.95,11.25c-0.85,1.36-2.64,1.78-4.01,0.93c-1.36-0.85-1.78-2.64-0.93-4.01l2.96-4.81c2.35-3.82,2.67-7.37,2.67-10.34
		c0-3.15-2.16-5.32-5.16-8.3l-0.24-0.24l-2.68-2.72c-1.12-1.16-1.32-2.57-0.53-3.68c0.45-0.64,1.14-1.06,1.92-1.17
		c0.69-0.09,1.39,0.12,1.92,0.58l0.05,0.04l3.4,3.39c4.1,4.18,10.81,4.25,15,0.16c0.05-0.05,0.1-0.1,0.16-0.16l3.45-3.44
		c0.53-0.46,1.22-0.67,1.92-0.58c0.77,0.11,1.47,0.53,1.92,1.17c0.79,1.12,0.59,2.52-0.52,3.67l-2.93,2.96
		c-2.99,2.99-5.16,5.15-5.16,8.3c0,2.97,0.32,6.52,2.67,10.34l2.96,4.8c0.85,1.36,0.43,3.16-0.93,4.01
		c-0.46,0.29-0.99,0.44-1.53,0.44"/>
</g>
</svg>
