<svg width="227" height="49" viewBox="0 0 227 49" fill="none" xmlns="http://www.w3.org/2000/svg">
<path fill-rule="evenodd" clip-rule="evenodd" d="M55.8926 45.3216H57.2601V35.3475H55.8926V45.3216Z" fill="white"/>
<path fill-rule="evenodd" clip-rule="evenodd" d="M55.8926 3.59962H59.0297V13.7981H72.1141V3.59962H75.2831V26.4888H72.1141V16.6473H59.0297V26.4888H55.8926V3.59962Z" fill="white"/>
<path fill-rule="evenodd" clip-rule="evenodd" d="M97.1616 22.0895C98.3264 23.2784 99.9345 23.8728 101.986 23.8728C104.038 23.8728 105.63 23.2784 106.761 22.0895C107.916 20.9003 108.494 19.2492 108.494 17.1366V3.59968H111.636V17.1366C111.636 20.1242 110.781 22.4675 109.071 24.1657C107.36 25.8636 105 26.7145 101.991 26.7173C98.9606 26.7176 96.584 25.867 94.8614 24.1657C93.1389 22.4644 92.2776 20.1214 92.2776 17.1366V3.59968H95.4147V17.1366C95.415 19.2522 95.9988 20.9034 97.1664 22.0895" fill="white"/>
<path fill-rule="evenodd" clip-rule="evenodd" d="M128.621 3.59962H132.349L140.718 19.6837L149.023 3.59962H152.782V26.4888H149.841L149.809 8.20954L141.664 24.0696H139.739L131.53 8.20954V26.4888H128.621V3.59962Z" fill="white"/>
<path fill-rule="evenodd" clip-rule="evenodd" d="M186.629 17.333V13.3453C186.629 8.57071 184.077 6.24755 180.025 6.24755C175.973 6.24755 173.417 8.57071 173.417 13.3453V17.333H186.629ZM189.917 13.6382V26.4888H186.647V20.1776H173.417V26.4888H170.215V13.6382C170.215 6.86944 174.139 3.33891 180.025 3.33891C185.911 3.33891 189.899 6.86944 189.899 13.6382H189.917Z" fill="white"/>
<mask id="mask0" mask-type="alpha" maskUnits="userSpaceOnUse" x="207" y="3" width="20" height="24">
<path fill-rule="evenodd" clip-rule="evenodd" d="M207.524 3.59962H226.915V26.4888H207.524V3.59962Z" fill="white"/>
</mask>
<g mask="url(#mask0)">
<path fill-rule="evenodd" clip-rule="evenodd" d="M223.81 3.59962H226.915V26.4888H223.741L210.662 8.76254V26.4888H207.524V3.59962H210.693L223.81 21.353V3.59962Z" fill="white"/>
</g>
<path fill-rule="evenodd" clip-rule="evenodd" d="M69.6992 35.3474H71.053V45.3215H69.6718L63.9735 37.6019V45.3215H62.606V35.3474H63.9872L69.6992 43.0854V35.3474Z" fill="white"/>
<path fill-rule="evenodd" clip-rule="evenodd" d="M75.1277 35.3474H82.9251V36.6048H79.7057V45.3215H78.3334V36.6048H75.1277V35.3474Z" fill="white"/>
<path fill-rule="evenodd" clip-rule="evenodd" d="M86.9863 35.3474H93.9104V36.5866H88.3538V39.6644H93.325V40.904H88.3538V44.0822H94.0796V45.3215H86.9863V35.3474Z" fill="white"/>
<path fill-rule="evenodd" clip-rule="evenodd" d="M102.686 40.9816C103.387 41.0283 104.083 40.8292 104.653 40.419C105.128 40.003 105.381 39.3892 105.339 38.7592C105.38 38.141 105.125 37.5404 104.653 37.14C104.079 36.7387 103.385 36.545 102.686 36.5912H100.153V40.9589L102.686 40.9816ZM105.224 45.3263L103.244 42.1934C103.016 42.1934 102.833 42.2211 102.691 42.2211H100.153V45.3263H98.7808V35.3519H102.686C103.736 35.2855 104.774 35.5972 105.613 36.23C106.321 36.8566 106.703 37.7739 106.647 38.7178C106.671 39.439 106.475 40.1508 106.084 40.7576C105.69 41.3234 105.121 41.7443 104.465 41.9557L106.788 45.3308L105.224 45.3263Z" fill="white"/>
<path fill-rule="evenodd" clip-rule="evenodd" d="M111.577 35.3474H118.075L118.061 36.5866H112.949V39.8657H117.549V41.105H112.949V45.3215H111.577V35.3474Z" fill="white"/>
<path fill-rule="evenodd" clip-rule="evenodd" d="M123.435 41.6676H127.625L125.516 36.8245L123.435 41.6676ZM129.207 45.3261L128.15 42.9024H122.891L121.853 45.3261H120.412L124.844 35.3517H126.271L130.688 45.3261H129.207Z" fill="white"/>
<path fill-rule="evenodd" clip-rule="evenodd" d="M140.292 36.8108C138.501 36.0081 136.393 36.6845 135.403 38.3797C134.339 40.2142 134.964 42.5648 136.798 43.6297C137.387 43.9713 138.057 44.1482 138.737 44.1418C139.266 44.1404 139.789 44.0312 140.274 43.8215C140.77 43.6123 141.224 43.3149 141.614 42.9434L142.442 43.8581C141.937 44.3532 141.343 44.7474 140.69 45.0196C139.19 45.6605 137.477 45.5659 136.058 44.7637C134.466 43.8629 133.489 42.1697 133.506 40.3413C133.497 39.442 133.736 38.5575 134.196 37.7849C134.651 37.0172 135.303 36.3852 136.085 35.9554C136.89 35.5083 137.798 35.2778 138.719 35.2879C139.411 35.2879 140.095 35.4215 140.736 35.6813C141.368 35.9313 141.942 36.3079 142.423 36.7879L141.619 37.7575C141.241 37.368 140.79 37.0572 140.292 36.8427" fill="white"/>
<path fill-rule="evenodd" clip-rule="evenodd" d="M146.846 35.3474H153.774V36.5866H148.213V39.6644H153.189V40.904H148.213V44.0822H153.944V45.3215H146.846V35.3474Z" fill="white"/>
<path fill-rule="evenodd" clip-rule="evenodd" d="M167.805 43.6022C168.365 43.2849 168.828 42.8218 169.145 42.2621C169.805 41.0699 169.805 39.622 169.145 38.4295C168.818 37.8647 168.344 37.3985 167.773 37.0807C167.189 36.7495 166.528 36.5792 165.857 36.5865H163.191V44.0824H165.935C166.596 44.0908 167.248 43.9236 167.824 43.5974M168.528 36.0013C169.289 36.4199 169.922 37.0381 170.357 37.7894C171.254 39.3708 171.254 41.3073 170.357 42.8885C169.911 43.6431 169.268 44.2616 168.496 44.6768C167.683 45.1153 166.772 45.3387 165.848 45.3261H161.828V35.3517H165.889C166.807 35.3391 167.712 35.5628 168.519 36.0013" fill="white"/>
<path fill-rule="evenodd" clip-rule="evenodd" d="M175.488 35.3474H182.412V36.5866H176.856V39.6644H181.827V40.904H176.856V44.0822H182.586V45.3215H175.488V35.3474Z" fill="white"/>
<path fill-rule="evenodd" clip-rule="evenodd" d="M191.669 36.7695C191.224 36.6315 190.762 36.5576 190.297 36.5503C189.817 36.5298 189.341 36.6455 188.925 36.8838C188.598 37.0716 188.398 37.4216 188.403 37.7985C188.392 38.1158 188.505 38.4243 188.719 38.6584C188.935 38.8863 189.197 39.0655 189.487 39.1842C189.792 39.3125 190.214 39.4648 190.754 39.6418C191.312 39.8084 191.858 40.0083 192.391 40.2407C192.811 40.4316 193.179 40.722 193.461 41.0868C193.779 41.5172 193.94 42.043 193.919 42.5776C193.931 43.1124 193.771 43.6368 193.461 44.073C193.13 44.5194 192.68 44.8629 192.163 45.0656C191.553 45.3078 190.902 45.426 190.246 45.4131C189.513 45.412 188.787 45.2658 188.111 44.9833C187.446 44.7179 186.837 44.3318 186.313 43.8446L186.926 42.6599C187.388 43.1168 187.933 43.4814 188.531 43.7348C189.078 43.977 189.667 44.1064 190.265 44.1142C190.816 44.143 191.364 44.0061 191.838 43.7211C192.204 43.4937 192.423 43.0905 192.414 42.6599C192.425 42.3404 192.312 42.029 192.099 41.7913C191.878 41.5553 191.607 41.371 191.307 41.2515C190.885 41.0773 190.455 40.9247 190.018 40.794C189.464 40.6344 188.922 40.4386 188.394 40.2088C187.977 40.0186 187.613 39.73 187.333 39.3671C187.018 38.9443 186.856 38.4263 186.876 37.899C186.873 37.3928 187.033 36.8989 187.333 36.4906C187.649 36.0656 188.079 35.7388 188.573 35.5487C189.163 35.3191 189.792 35.2071 190.425 35.2192C191.021 35.2194 191.615 35.3088 192.186 35.4843C192.727 35.645 193.243 35.8825 193.717 36.1888L193.146 37.4144C192.697 37.1276 192.211 36.9042 191.701 36.7513" fill="white"/>
<mask id="mask1" mask-type="alpha" maskUnits="userSpaceOnUse" x="0" y="0" width="227" height="49">
<path fill-rule="evenodd" clip-rule="evenodd" d="M0 48.5548H226.915V0.279999H0V48.5548Z" fill="white"/>
</mask>
<g mask="url(#mask1)">
<path fill-rule="evenodd" clip-rule="evenodd" d="M198.556 45.3216H199.923V35.3475H198.556V45.3216Z" fill="white"/>
<path fill-rule="evenodd" clip-rule="evenodd" d="M212.166 40.4511H213.378V44.1096C212.293 44.942 210.968 45.4023 209.601 45.4222C208.678 45.4312 207.77 45.1979 206.966 44.7455C205.365 43.852 204.376 42.1571 204.387 40.3231C204.379 39.4227 204.622 38.5376 205.087 37.7665C205.549 36.9973 206.209 36.3656 206.998 35.9372C207.819 35.4878 208.742 35.2579 209.678 35.2694C210.372 35.2697 211.06 35.3951 211.709 35.6399C212.338 35.8692 212.919 36.2116 213.424 36.6507L212.642 37.6477C212.242 37.2779 211.777 36.9861 211.27 36.7879C210.765 36.5863 210.226 36.4824 209.683 36.4815C208.993 36.4754 208.315 36.6521 207.716 36.9937C207.129 37.3249 206.639 37.8065 206.298 38.3886C205.6 39.5887 205.6 41.0713 206.298 42.2714C206.638 42.8641 207.126 43.3581 207.716 43.7027C208.313 44.0494 208.992 44.2291 209.683 44.2241C210.116 44.2219 210.547 44.1524 210.959 44.0183C211.385 43.8836 211.79 43.6896 212.161 43.4421L212.166 40.4511Z" fill="white"/>
<path fill-rule="evenodd" clip-rule="evenodd" d="M225.561 35.3474H226.915V45.3215H225.534L219.831 37.6019V45.3215H218.463V35.3474H219.845L225.561 43.0854V35.3474Z" fill="white"/>
<path fill-rule="evenodd" clip-rule="evenodd" d="M9.1224 1.96283C5.0134 1.96591 1.68308 5.29595 1.68 9.40523V39.4324C1.68476 43.5409 5.01396 46.8703 9.1224 46.8745H39.1496C43.258 46.8703 46.5875 43.5409 46.592 39.4324V9.40243C46.5889 5.29343 43.2586 1.96311 39.1496 1.96003L9.1224 1.96283ZM39.1496 48.5545H9.1224C4.08632 48.5503 0.00476 44.4688 0 39.4324V9.40243C0.00476 4.36607 4.08632 0.284787 9.1224 0.280027H39.1496C44.186 0.284787 48.2675 4.36607 48.272 9.40243V39.4324C48.2675 44.4688 44.186 48.5503 39.1496 48.5545V48.5545Z" fill="white"/>
<path fill-rule="evenodd" clip-rule="evenodd" d="M24.2894 6.31951C23.1143 6.31951 22.1614 7.27235 22.1614 8.44779C22.1614 9.62295 23.1143 10.5755 24.2894 10.5755C25.4646 10.5755 26.4174 9.62295 26.4174 8.44779C26.416 7.27291 25.464 6.32119 24.2894 6.31951M24.2894 12.2527C22.1864 12.2527 20.4814 10.5481 20.4814 8.44471C20.4814 6.34163 22.1864 4.63671 24.2894 4.63671C26.3925 4.63671 28.0974 6.34163 28.0974 8.44471C28.096 10.5472 26.392 12.2513 24.2894 12.2527" fill="white"/>
<path fill-rule="evenodd" clip-rule="evenodd" d="M24.2895 29.6968C24.7974 29.6951 25.2698 29.9583 25.5355 30.3912L32.6699 41.9328C33.0392 42.5023 33.8005 42.6644 34.37 42.2951C34.9267 41.9339 35.0964 41.1958 34.7531 40.628L31.7879 35.8176C29.2119 31.64 28.8647 27.7984 28.8647 24.5926C28.8647 20.7427 31.3567 18.2532 34.5123 15.0976L34.7531 14.8596L37.4243 12.152C37.7295 11.8356 38.1887 11.2084 37.7771 10.626C37.6021 10.3695 37.328 10.1967 37.0211 10.15C36.8066 10.1217 36.5904 10.1844 36.4247 10.3236L33.0647 13.6836C30.7589 15.9908 27.6458 17.3093 24.3847 17.36H24.2335C20.9718 17.3085 17.8584 15.9888 15.5535 13.6808L12.1935 10.3208C12.0277 10.1819 11.8116 10.1186 11.5971 10.1472C11.291 10.1951 11.0183 10.3673 10.8436 10.6232C10.4295 11.2028 10.8912 11.8328 11.2023 12.1548L14.1059 15.0948C17.2612 18.2476 19.7563 20.7396 19.7563 24.5896C19.7563 27.7956 19.4091 31.6372 16.8331 35.8148L13.8707 40.6224C13.5095 41.1975 13.6831 41.9566 14.2585 42.3178C14.8336 42.6787 15.5927 42.5051 15.9536 41.93L23.0855 30.38C23.3456 29.9633 23.7984 29.7063 24.2895 29.6968M33.7171 44.198C33.4948 44.1977 33.273 44.1722 33.0563 44.1227C32.3039 43.9505 31.6515 43.4845 31.2447 42.8288L24.2895 31.5728L17.3371 42.826C16.4867 44.1893 14.6922 44.6045 13.3289 43.7542C11.9656 42.9038 11.55 41.1093 12.4007 39.746L15.3631 34.9328C17.7179 31.1108 18.0343 27.5604 18.0343 24.5896C18.0343 21.4368 15.8727 19.2696 12.8767 16.2848L12.6359 16.044L9.95628 13.328C8.83628 12.1688 8.64028 10.7604 9.42988 9.64877C9.87704 9.00869 10.5714 8.58449 11.3451 8.47837C12.0367 8.39045 12.7333 8.60129 13.2603 9.05797L13.3079 9.10277L16.7071 12.4908C20.8049 16.6745 27.5182 16.7443 31.7022 12.6465C31.7546 12.5952 31.8066 12.5431 31.8579 12.4908L35.3103 9.05517C35.8372 8.59849 36.5336 8.38765 37.2255 8.47557C37.9991 8.58169 38.6932 9.00589 39.1407 9.64597C39.9331 10.766 39.7343 12.166 38.6227 13.3196L35.6967 16.282C32.7035 19.2727 30.5391 21.434 30.5391 24.5868C30.5391 27.5576 30.8555 31.1108 33.2131 34.93L36.1755 39.7348C37.0244 41.0989 36.607 42.8929 35.2428 43.7419C34.7833 44.028 34.253 44.1803 33.7115 44.1812" fill="white"/>
</g>
</svg>
