<?xml version="1.0" encoding="utf-8"?>
<!-- Generator: Adobe Illustrator 25.0.0, SVG Export Plug-In . SVG Version: 6.00 Build 0)  -->
<svg version="1.1" id="Layer_1" xmlns="http://www.w3.org/2000/svg" xmlns:xlink="http://www.w3.org/1999/xlink" x="0px" y="0px"
	 viewBox="0 0 40 40" style="enable-background:new 0 0 40 40;" xml:space="preserve">
<style type="text/css">
	.st0{fill:#FFFFFF;}
</style>
<g>
	<path class="st0" d="M39.65,17.98c-0.91-9.13-8.24-16.56-17.38-17.6C17.6-0.15,13.21,0.99,9.6,3.24v-0.9
		c0-0.57-0.47-1.04-1.04-1.04c-0.57,0-1.04,0.47-1.04,1.04v3.12c0,0.57,0.47,1.04,1.04,1.04h3.12c0.57,0,1.04-0.47,1.04-1.04
		c0-0.56-0.45-1.01-1-1.03c3.04-1.63,6.6-2.42,10.38-1.97c7.96,0.93,14.43,7.31,15.43,15.26c1.46,11.53-8.28,21.27-19.81,19.81
		c-7.94-0.99-14.32-7.44-15.26-15.4c-0.54-4.6,0.72-8.9,3.14-12.31c0.3-0.43,0.27-0.99-0.09-1.36C5.04,7.99,4.28,8.07,3.89,8.6
		c-2.69,3.79-4.1,8.58-3.51,13.69C1.42,31.41,8.85,38.74,18,39.64C30.46,40.88,40.89,30.45,39.65,17.98z"/>
	<path class="st0" d="M14.84,29.32c0.35,0,0.72-0.09,1.04-0.27l12.4-7.23c0.64-0.38,1.03-1.05,1.03-1.8c0-0.75-0.38-1.42-1.03-1.8
		l-12.4-7.23c-0.64-0.38-1.42-0.38-2.08-0.01c-0.64,0.37-1.04,1.05-1.04,1.8v14.47c0,0.75,0.38,1.42,1.04,1.8
		C14.13,29.23,14.49,29.32,14.84,29.32z M14.84,12.78l12.39,7.23l-12.39,7.23V12.78z"/>
</g>
</svg>
