<svg width="97" height="99" viewBox="0 0 97 99" fill="none" xmlns="http://www.w3.org/2000/svg">
<path fill-rule="evenodd" clip-rule="evenodd" d="M93.2777 79.1902H76.928V95.3H93.2777V79.1902ZM73.228 75.4902V99H96.9777V75.4902H73.228Z" fill="white"/>
<path fill-rule="evenodd" clip-rule="evenodd" d="M93.2777 55.617H76.928V71.7267H93.2777V55.617ZM73.228 51.917V75.4267H96.9777V51.917H73.228Z" fill="white"/>
<path fill-rule="evenodd" clip-rule="evenodd" d="M93.2777 32.1072H76.928V48.217H93.2777V32.1072ZM73.228 28.4072V51.917H96.9777V28.4072H73.228Z" fill="white"/>
<rect x="54.85" y="77.3402" width="20.0496" height="19.8097" stroke="white" stroke-width="3.7"/>
<path fill-rule="evenodd" clip-rule="evenodd" d="M73.0496 55.617H56.7V71.7267H73.0496V55.617ZM53 51.917V75.4267H76.7496V51.917H53Z" fill="white"/>
<path fill-rule="evenodd" clip-rule="evenodd" d="M53.0496 79.1902H36.7V95.3H53.0496V79.1902ZM33 75.4902V99H56.7496V75.4902H33Z" fill="white"/>
<path fill-rule="evenodd" clip-rule="evenodd" d="M20.0496 3.7H3.7V19.8097H20.0496V3.7ZM0 0V23.5098H23.7496V0H0Z" fill="white"/>
<path fill-rule="evenodd" clip-rule="evenodd" d="M48.0291 17.5477H31.6795V33.6574H48.0291V17.5477ZM27.9795 13.8477V37.3574H51.7291V13.8477H27.9795Z" fill="white"/>
<path fill-rule="evenodd" clip-rule="evenodd" d="M20.0496 32.6551H3.7V48.7648H20.0496V32.6551ZM0 28.9551V52.4648H23.7496V28.9551H0Z" fill="white"/>
</svg>
